<svg xmlns="http://www.w3.org/2000/svg" xmlns:xlink="http://www.w3.org/1999/xlink" version="1.1" width="256" height="256" viewBox="0 0 256 256" xml:space="preserve">
<desc>Created with Fabric.js 1.7.22</desc>
<defs>
</defs>
<g transform="translate(128 128) scale(0.72 0.72)" style="">
	<g style="stroke: none; stroke-width: 0; stroke-dasharray: none; stroke-linecap: butt; stroke-linejoin: miter; stroke-miterlimit: 10; fill: none; fill-rule: nonzero; opacity: 1;" transform="translate(-175.05 -175.05000000000004) scale(3.89 3.89)" >
	<path d="M 30.084 27.092 h -1.801 c -1.012 0 -1.832 0.82 -1.832 1.832 v 3.027 c 0 2.97 1.985 5.477 4.7 6.267 L 30.084 27.092 z" style="stroke: none; stroke-width: 1; stroke-dasharray: none; stroke-linecap: butt; stroke-linejoin: miter; stroke-miterlimit: 10; fill: rgb(231,197,176); fill-rule: nonzero; opacity: 1;" transform=" matrix(1 0 0 1 0 0) " stroke-linecap="round" />
	<path d="M 59.985 27.092 h 1.732 c 1.012 0 1.832 0.82 1.832 1.832 v 3.025 c 0 2.971 -1.985 5.479 -4.702 6.269 L 59.985 27.092 z" style="stroke: none; stroke-width: 1; stroke-dasharray: none; stroke-linecap: butt; stroke-linejoin: miter; stroke-miterlimit: 10; fill: rgb(231,197,176); fill-rule: nonzero; opacity: 1;" transform=" matrix(1 0 0 1 0 0) " stroke-linecap="round" />
	<path d="M 57.613 54.111 c 0.305 0.099 0.622 0.178 0.949 0.233 l 7.556 1.273 c 3.98 0.67 6.872 3.866 6.872 7.595 v 26.745 H 45 H 17.009 V 63.212 c 0 -3.729 2.892 -6.925 6.872 -7.595 l 7.556 -1.273 c 0.327 -0.055 0.644 -0.133 0.949 -0.233 H 57.613 z" style="stroke: none; stroke-width: 1; stroke-dasharray: none; stroke-linecap: butt; stroke-linejoin: miter; stroke-miterlimit: 10; fill: rgb(255,120,0); fill-rule: nonzero; opacity: 1;" transform=" matrix(1 0 0 1 0 0) " stroke-linecap="round" />
	<path d="M 57.613 54.111 c 0.305 0.099 0.622 0.178 0.949 0.233 l 5.917 0.997 c 0 0 -19.486 23.991 -19.486 23.991 L 25.514 55.34 l 0 0.002 l 5.923 -0.998 c 0.327 -0.055 0.644 -0.133 0.949 -0.233 H 57.613 z" style="stroke: none; stroke-width: 1; stroke-dasharray: none; stroke-linecap: butt; stroke-linejoin: miter; stroke-miterlimit: 10; fill: rgb(228,238,249); fill-rule: nonzero; opacity: 1;" transform=" matrix(1 0 0 1 0 0) " stroke-linecap="round" />
	<path d="M 53.606 46.745 l 0.047 2.075 c 0 2.279 1.469 4.288 3.646 5.185 c -8.162 8.067 -16.367 8.133 -24.581 0.04 l 0.002 0.005 c 2.238 -0.873 3.758 -2.912 3.758 -5.23 l 0.047 -1.959 C 42.247 42.01 47.941 41.922 53.606 46.745 z" style="stroke: none; stroke-width: 1; stroke-dasharray: none; stroke-linecap: butt; stroke-linejoin: miter; stroke-miterlimit: 10; fill: rgb(231,197,176); fill-rule: nonzero; opacity: 1;" transform=" matrix(1 0 0 1 0 0) " stroke-linecap="round" />
	<path d="M 60.04 25.614 l -0.596 9.274 c -0.176 2.104 -0.713 4.119 -1.558 5.976 c -0.456 1.003 -1.002 1.96 -1.629 2.859 c -0.627 0.899 -1.335 1.741 -2.116 2.513 c -1.829 1.81 -4.057 3.242 -6.572 4.151 l 0 0 c -1.661 0.6 -3.479 0.6 -5.14 0 l 0 0 c -6.647 -2.402 -11.285 -8.456 -11.874 -15.499 l -0.561 -9.274 V 14.029 H 60.04 V 25.614 z" style="stroke: none; stroke-width: 1; stroke-dasharray: none; stroke-linecap: butt; stroke-linejoin: miter; stroke-miterlimit: 10; fill: rgb(244,211,190); fill-rule: nonzero; opacity: 1;" transform=" matrix(1 0 0 1 0 0) " stroke-linecap="round" />
	<path d="M 51.359 39.053 c -4.24 5.573 -8.48 5.611 -12.72 0 H 51.359 z" style="stroke: none; stroke-width: 1; stroke-dasharray: none; stroke-linecap: butt; stroke-linejoin: miter; stroke-miterlimit: 10; fill: rgb(255,255,255); fill-rule: nonzero; opacity: 1;" transform=" matrix(1 0 0 1 0 0) " stroke-linecap="round" />
	<path d="M 60.04 25.614 c 6.636 -9.876 3.624 -16.606 -7.059 -20.834 c 0.233 -0.976 1.578 -1.951 3.702 -2.927 c -8.786 -3.301 -19.235 -2.546 -24.015 5.173 c -6.549 2.208 -8.554 9.537 -2.673 18.588 c 0.656 -11.077 7.847 -10.177 16.529 -6.543 c 4.39 1.68 8.201 1.507 11.794 0.947 C 60.282 19.65 60.186 23.144 60.04 25.614 z" style="stroke: none; stroke-width: 1; stroke-dasharray: none; stroke-linecap: butt; stroke-linejoin: miter; stroke-miterlimit: 10; fill: rgb(45,68,86); fill-rule: nonzero; opacity: 1;" transform=" matrix(1 0 0 1 0 0) " stroke-linecap="round" />
	<path d="M 42.505 29.406 c -0.156 0 -0.313 -0.036 -0.461 -0.113 c -1.551 -0.809 -3.061 -0.809 -4.613 0 c -0.49 0.255 -1.093 0.065 -1.348 -0.424 c -0.255 -0.49 -0.065 -1.093 0.424 -1.348 c 2.145 -1.117 4.319 -1.117 6.462 0 c 0.49 0.255 0.679 0.859 0.424 1.348 C 43.214 29.21 42.865 29.406 42.505 29.406 z" style="stroke: none; stroke-width: 1; stroke-dasharray: none; stroke-linecap: butt; stroke-linejoin: miter; stroke-miterlimit: 10; fill: rgb(45,68,86); fill-rule: nonzero; opacity: 1;" transform=" matrix(1 0 0 1 0 0) " stroke-linecap="round" />
	<path d="M 47.495 29.406 c -0.361 0 -0.709 -0.196 -0.887 -0.538 c -0.255 -0.49 -0.065 -1.093 0.425 -1.348 c 2.144 -1.119 4.319 -1.118 6.462 0 c 0.49 0.255 0.679 0.859 0.425 1.348 c -0.256 0.488 -0.858 0.681 -1.348 0.424 c -1.552 -0.809 -3.061 -0.809 -4.615 0 C 47.808 29.37 47.65 29.406 47.495 29.406 z" style="stroke: none; stroke-width: 1; stroke-dasharray: none; stroke-linecap: butt; stroke-linejoin: miter; stroke-miterlimit: 10; fill: rgb(45,68,86); fill-rule: nonzero; opacity: 1;" transform=" matrix(1 0 0 1 0 0) " stroke-linecap="round" />
	<path d="M 27.478 90 c -0.017 -0.372 -0.011 -12.016 -0.009 -14.049 l 1.999 0.002 c -0.004 3.479 -0.005 13.55 0.007 13.965 L 27.478 90 z" style="stroke: none; stroke-width: 1; stroke-dasharray: none; stroke-linecap: butt; stroke-linejoin: miter; stroke-miterlimit: 10; fill: rgb(255,207,77); fill-rule: nonzero; opacity: 1;" transform=" matrix(1 0 0 1 0 0) " stroke-linecap="round" />
	<path d="M 62.464 90 l -1.997 -0.088 l 0.999 0.044 l -0.999 -0.038 c 0.013 -0.426 0.011 -10.877 0.006 -13.964 l 1.999 -0.004 C 62.476 78.492 62.48 89.641 62.464 90 z" style="stroke: none; stroke-width: 1; stroke-dasharray: none; stroke-linecap: butt; stroke-linejoin: miter; stroke-miterlimit: 10; fill: rgb(255,207,77); fill-rule: nonzero; opacity: 1;" transform=" matrix(1 0 0 1 0 0) " stroke-linecap="round" />
	<polygon points="47.52,61.89 42.48,61.89 41.46,55.98 48.54,55.98 " style="stroke: none; stroke-width: 1; stroke-dasharray: none; stroke-linecap: butt; stroke-linejoin: miter; stroke-miterlimit: 10; fill: rgb(227,73,101); fill-rule: nonzero; opacity: 1;" transform="  matrix(1 0 0 1 0 0) "/>
	<polygon points="47.53,61.89 50.2,72.93 45.02,79.33 45,79.33 39.8,72.94 42.48,61.89 " style="stroke: none; stroke-width: 1; stroke-dasharray: none; stroke-linecap: butt; stroke-linejoin: miter; stroke-miterlimit: 10; fill: rgb(203,60,86); fill-rule: nonzero; opacity: 1;" transform="  matrix(1 0 0 1 0 0) "/>
	<polygon points="48.54,55.98 53.91,50.78 57.61,54.11 52.33,63.77 47.83,60.08 " style="stroke: none; stroke-width: 1; stroke-dasharray: none; stroke-linecap: butt; stroke-linejoin: miter; stroke-miterlimit: 10; fill: rgb(208,221,243); fill-rule: nonzero; opacity: 1;" transform="  matrix(1 0 0 1 0 0) "/>
	<polygon points="41.46,55.98 36.09,50.78 32.39,54.11 37.67,63.77 42.17,60.08 " style="stroke: none; stroke-width: 1; stroke-dasharray: none; stroke-linecap: butt; stroke-linejoin: miter; stroke-miterlimit: 10; fill: rgb(208,221,243); fill-rule: nonzero; opacity: 1;" transform="  matrix(1 0 0 1 0 0) "/>
	<polygon points="45,77.75 26.65,55.15 24.38,55.53 45,80.92 65.61,55.53 63.35,55.15 " style="stroke: none; stroke-width: 1; stroke-dasharray: none; stroke-linecap: butt; stroke-linejoin: miter; stroke-miterlimit: 10; fill: rgb(255,207,77); fill-rule: nonzero; opacity: 1;" transform="  matrix(1 0 0 1 0 0) "/>
</g>
</g>
</svg>