<svg xmlns="http://www.w3.org/2000/svg" xmlns:xlink="http://www.w3.org/1999/xlink" version="1.1" width="256" height="256" viewBox="0 0 256 256" xml:space="preserve">
<desc>Created with Fabric.js 1.7.22</desc>
<defs>
</defs>
<g transform="translate(128 128) scale(0.72 0.72)" style="">
	<g style="stroke: none; stroke-width: 0; stroke-dasharray: none; stroke-linecap: butt; stroke-linejoin: miter; stroke-miterlimit: 10; fill: none; fill-rule: nonzero; opacity: 1;" transform="translate(-175.05 -175.05000000000004) scale(3.89 3.89)" >
	<path d="M 34.893 52.379 c 1.177 1.177 3.086 1.177 4.264 0 c 1.177 -1.177 1.177 -3.086 0 -4.264 l 5.115 5.115 c 1.177 1.177 3.086 1.177 4.264 0 l 0 0 c 1.177 -1.177 1.177 -3.086 0 -4.264 l 1.52 1.52 c 1.177 1.177 3.086 1.177 4.264 0 s 1.177 -3.086 0 -4.264 l -2.014 -2.014 c 1.144 1.144 2.998 1.144 4.142 0 s 1.144 -2.998 0 -4.142 l -5.682 -5.682 c 0.123 -0.089 0.241 -0.19 0.352 -0.301 l 0 0 c 1.144 -1.144 1.144 -2.998 0 -4.142 l -3.86 -3.86 l -1.997 -1.997 c -2.353 -2.353 -6.302 -2.576 -10.472 -1.002 L 12.207 0.5 L 0.5 12.207 L 22.914 34.62 l 0 0 c -0.46 3.056 0.487 6.282 2.839 8.634 L 34.893 52.379 z" style="stroke: none; stroke-width: 1; stroke-dasharray: none; stroke-linecap: butt; stroke-linejoin: miter; stroke-miterlimit: 10; fill: rgb(243,179,113); fill-rule: nonzero; opacity: 1;" transform=" matrix(1 0 0 1 0 0) " stroke-linecap="round" />
	<rect x="7.78" y="2.33" rx="0" ry="0" width="16.55" height="27.44" style="stroke: none; stroke-width: 1; stroke-dasharray: none; stroke-linecap: butt; stroke-linejoin: miter; stroke-miterlimit: 10; fill: rgb(0,0,0); fill-rule: nonzero; opacity: 1;" transform=" matrix(-0.7071 0.7071 -0.7071 -0.7071 38.7606 16.0551) "/>
	<rect x="15.81" y="21.73" rx="0" ry="0" width="16.55" height="4.72" style="stroke: none; stroke-width: 1; stroke-dasharray: none; stroke-linecap: butt; stroke-linejoin: miter; stroke-miterlimit: 10; fill: rgb(251,120,19); fill-rule: nonzero; opacity: 1;" transform=" matrix(0.7071 -0.7071 0.7071 0.7071 -9.9782 24.0896) "/>
	<path d="M 34.539 52.732 c 1.371 1.371 3.601 1.37 4.971 0 c 0.698 -0.698 1.036 -1.618 1.024 -2.534 l 3.384 3.384 c 1.371 1.371 3.601 1.37 4.971 0 c 0.708 -0.708 1.043 -1.645 1.019 -2.575 c 1.38 1.184 3.458 1.138 4.765 -0.169 c 1.371 -1.371 1.371 -3.6 0 -4.971 l -0.305 -0.305 c 0.881 0.002 1.762 -0.331 2.433 -1.002 c 1.337 -1.337 1.337 -3.512 0 -4.849 l -5.306 -5.306 c 1.309 -1.339 1.303 -3.492 -0.024 -4.82 l -5.857 -5.857 c -2.341 -2.341 -6.323 -2.793 -10.698 -1.228 l -2.599 -2.599 l -4.042 -4.042 L 12.56 0.147 c -0.195 -0.195 -0.512 -0.195 -0.707 0 L 0.147 11.853 c -0.195 0.195 -0.195 0.512 0 0.707 l 15.715 15.715 l 4.042 4.042 l 2.48 2.48 c -0.406 3.229 0.711 6.506 3.015 8.81 L 34.539 52.732 z M 30.903 19.903 L 19.903 30.903 l -2.627 -2.627 l 10.999 -10.999 L 30.903 19.903 z M 1.207 12.206 L 12.206 1.207 l 15.362 15.362 L 16.569 27.568 L 1.207 12.206 z M 23.408 34.694 c 0.023 -0.157 -0.028 -0.316 -0.141 -0.428 l -2.656 -2.656 L 31.61 20.611 l 2.825 2.825 c 0.139 0.139 0.347 0.184 0.53 0.115 c 4.116 -1.554 7.832 -1.222 9.942 0.887 l 5.857 5.857 c 0.938 0.938 0.944 2.457 0.024 3.406 l -3.248 -3.248 l -0.707 0.707 l 9.26 9.26 c 0.947 0.947 0.947 2.488 0 3.435 s -2.488 0.947 -3.435 0 l -7.831 -7.831 l -1.429 -1.429 l -0.707 0.707 l 1.429 1.429 l 7.831 7.831 l 2.014 2.014 c 0.981 0.981 0.981 2.576 0 3.557 c -0.981 0.981 -2.576 0.981 -3.557 0 l -1.52 -1.52 l -9.381 -9.381 l -1.062 -1.062 l -0.707 0.707 l 1.062 1.062 l 9.381 9.381 c 0.981 0.981 0.981 2.576 0 3.557 c -0.981 0.981 -2.576 0.98 -3.557 0 l -5.115 -5.115 l -5.328 -5.328 l -0.566 -0.566 l -0.707 0.707 l 0.566 0.566 l 5.328 5.328 c 0.981 0.981 0.98 2.577 0 3.557 c -0.981 0.981 -2.576 0.98 -3.557 -0.001 l -9.14 -9.125 C 23.964 40.759 22.956 37.691 23.408 34.694 z" style="stroke: none; stroke-width: 1; stroke-dasharray: none; stroke-linecap: butt; stroke-linejoin: miter; stroke-miterlimit: 10; fill: rgb(0,0,0); fill-rule: nonzero; opacity: 1;" transform=" matrix(1 0 0 1 0 0) " stroke-linecap="round" />
	<path d="M 17.415 22.582 l 1.494 -1.494 c 0.195 -0.195 0.512 -0.195 0.707 0 c 0.195 0.195 0.195 0.512 0 0.707 l -1.494 1.494 c -0.195 0.195 -0.512 0.195 -0.707 0 S 17.22 22.778 17.415 22.582 z" style="stroke: none; stroke-width: 1; stroke-dasharray: none; stroke-linecap: butt; stroke-linejoin: miter; stroke-miterlimit: 10; fill: rgb(0,0,0); fill-rule: nonzero; opacity: 1;" transform=" matrix(1 0 0 1 0 0) " stroke-linecap="round" />
	<path d="M 19.556 11.989 c 0.195 -0.195 0.512 -0.195 0.707 0 l 4.226 4.226 c 0.195 0.195 0.195 0.512 0 0.707 l -3.184 3.184 c -0.195 0.195 -0.512 0.195 -0.707 0 c -0.195 -0.195 -0.195 -0.512 0 -0.707 l 2.83 -2.83 l -3.873 -3.873 C 19.361 12.501 19.361 12.185 19.556 11.989 z" style="stroke: none; stroke-width: 1; stroke-dasharray: none; stroke-linecap: butt; stroke-linejoin: miter; stroke-miterlimit: 10; fill: rgb(0,0,0); fill-rule: nonzero; opacity: 1;" transform=" matrix(1 0 0 1 0 0) " stroke-linecap="round" />
	<path d="M 55.107 52.379 c -1.177 1.177 -3.086 1.177 -4.264 0 c -1.177 -1.177 -1.177 -3.086 0 -4.264 l -5.115 5.115 c -1.177 1.177 -3.086 1.177 -4.264 0 l 0 0 c -1.177 -1.177 -1.177 -3.086 0 -4.264 l -1.52 1.52 c -1.177 1.177 -3.086 1.177 -4.264 0 s -1.177 -3.086 0 -4.264 l 2.014 -2.014 c -1.144 1.144 -2.998 1.144 -4.142 0 s -1.144 -2.998 0 -4.142 l 5.682 -5.682 c -0.123 -0.089 -0.241 -0.19 -0.352 -0.301 l 0 0 c -1.144 -1.144 -1.144 -2.998 0 -4.142 l 3.86 -3.86 l 1.997 -1.997 c 2.353 -2.353 6.302 -2.576 10.472 -1.002 L 77.793 0.5 L 89.5 12.207 L 67.086 34.62 l 0 0 c 0.46 3.056 -0.487 6.282 -2.839 8.634 L 55.107 52.379 z" style="stroke: none; stroke-width: 1; stroke-dasharray: none; stroke-linecap: butt; stroke-linejoin: miter; stroke-miterlimit: 10; fill: rgb(243,179,113); fill-rule: nonzero; opacity: 1;" transform=" matrix(1 0 0 1 0 0) " stroke-linecap="round" />
	<rect x="65.67" y="2.33" rx="0" ry="0" width="16.55" height="27.44" style="stroke: none; stroke-width: 1; stroke-dasharray: none; stroke-linecap: butt; stroke-linejoin: miter; stroke-miterlimit: 10; fill: rgb(0,0,0); fill-rule: nonzero; opacity: 1;" transform=" matrix(0.7071 0.7071 -0.7071 0.7071 33.0106 -47.5844) "/>
	<rect x="63.55" y="15.81" rx="0" ry="0" width="4.72" height="16.55" style="stroke: none; stroke-width: 1; stroke-dasharray: none; stroke-linecap: butt; stroke-linejoin: miter; stroke-miterlimit: 10; fill: rgb(251,120,19); fill-rule: nonzero; opacity: 1;" transform=" matrix(0.7071 -0.7071 0.7071 0.7071 2.2708 53.6614) "/>
	<path d="M 55.461 52.732 c -1.371 1.371 -3.601 1.37 -4.971 0 c -0.698 -0.698 -1.036 -1.618 -1.024 -2.534 l -3.384 3.384 c -1.371 1.371 -3.601 1.37 -4.971 0 c -0.708 -0.708 -1.043 -1.645 -1.019 -2.575 c -1.38 1.184 -3.458 1.138 -4.765 -0.169 c -1.371 -1.371 -1.371 -3.6 0 -4.971 l 0.305 -0.305 c -0.881 0.002 -1.762 -0.331 -2.433 -1.002 c -1.337 -1.337 -1.337 -3.512 0 -4.849 l 5.306 -5.306 c -1.309 -1.339 -1.303 -3.492 0.024 -4.82 l 5.857 -5.857 c 2.341 -2.341 6.323 -2.793 10.698 -1.228 l 2.599 -2.599 l 4.042 -4.042 L 77.44 0.147 c 0.195 -0.195 0.512 -0.195 0.707 0 l 11.706 11.706 c 0.195 0.195 0.195 0.512 0 0.707 L 74.138 28.275 l -4.042 4.042 l -2.48 2.48 c 0.406 3.229 -0.711 6.506 -3.015 8.81 L 55.461 52.732 z M 59.097 19.903 l 10.999 10.999 l 2.627 -2.627 L 61.725 17.276 L 59.097 19.903 z M 88.793 12.206 L 77.794 1.207 L 62.432 16.569 l 10.999 10.999 L 88.793 12.206 z M 66.592 34.694 c -0.023 -0.157 0.028 -0.316 0.141 -0.428 l 2.656 -2.656 L 58.39 20.611 l -2.825 2.825 c -0.139 0.139 -0.347 0.184 -0.53 0.115 c -4.116 -1.554 -7.832 -1.222 -9.942 0.887 l -5.857 5.857 c -0.938 0.938 -0.944 2.457 -0.024 3.406 l 3.248 -3.248 l 0.707 0.707 l -9.26 9.26 c -0.947 0.947 -0.947 2.488 0 3.435 s 2.488 0.947 3.435 0 l 7.831 -7.831 l 1.429 -1.429 l 0.707 0.707 L 45.88 36.73 l -7.831 7.831 l -2.014 2.014 c -0.981 0.981 -0.981 2.576 0 3.557 c 0.981 0.981 2.576 0.981 3.557 0 l 1.52 -1.52 l 9.381 -9.381 l 1.062 -1.062 l 0.707 0.707 L 51.2 39.939 l -9.381 9.381 c -0.981 0.981 -0.981 2.576 0 3.557 c 0.981 0.981 2.576 0.98 3.557 0 l 5.115 -5.115 l 5.328 -5.328 l 0.566 -0.566 l 0.707 0.707 l -0.566 0.566 l -5.328 5.328 c -0.981 0.981 -0.98 2.577 0 3.557 c 0.981 0.981 2.576 0.98 3.557 -0.001 l 9.14 -9.125 C 66.036 40.759 67.044 37.691 66.592 34.694 z" style="stroke: none; stroke-width: 1; stroke-dasharray: none; stroke-linecap: butt; stroke-linejoin: miter; stroke-miterlimit: 10; fill: rgb(0,0,0); fill-rule: nonzero; opacity: 1;" transform=" matrix(1 0 0 1 0 0) " stroke-linecap="round" />
	<path d="M 72.585 22.582 l -1.494 -1.494 c -0.195 -0.195 -0.512 -0.195 -0.707 0 c -0.195 0.195 -0.195 0.512 0 0.707 l 1.494 1.494 c 0.195 0.195 0.512 0.195 0.707 0 C 72.78 23.094 72.78 22.778 72.585 22.582 z" style="stroke: none; stroke-width: 1; stroke-dasharray: none; stroke-linecap: butt; stroke-linejoin: miter; stroke-miterlimit: 10; fill: rgb(0,0,0); fill-rule: nonzero; opacity: 1;" transform=" matrix(1 0 0 1 0 0) " stroke-linecap="round" />
	<path d="M 70.444 11.989 c -0.195 -0.195 -0.512 -0.195 -0.707 0 l -4.226 4.226 c -0.195 0.195 -0.195 0.512 0 0.707 l 3.184 3.184 c 0.195 0.195 0.512 0.195 0.707 0 c 0.195 -0.195 0.195 -0.512 0 -0.707 l -2.83 -2.83 l 3.873 -3.873 C 70.639 12.501 70.639 12.185 70.444 11.989 z" style="stroke: none; stroke-width: 1; stroke-dasharray: none; stroke-linecap: butt; stroke-linejoin: miter; stroke-miterlimit: 10; fill: rgb(0,0,0); fill-rule: nonzero; opacity: 1;" transform=" matrix(1 0 0 1 0 0) " stroke-linecap="round" />
	<path d="M 58.348 36.986 c 0 -1.665 -1.35 -3.015 -3.015 -3.015 c -1.665 0 -3.015 1.35 -3.015 3.015 l 0 -7.233 c 0 -1.665 -1.35 -3.015 -3.015 -3.015 h 0 c -1.665 0 -3.015 1.35 -3.015 3.015 v -2.15 c 0 -1.665 -1.35 -3.015 -3.015 -3.015 s -3.015 1.35 -3.015 3.015 l 0 2.848 c 0 -1.618 -1.311 -2.929 -2.929 -2.929 c -1.618 0 -2.929 1.311 -2.929 2.929 v 8.036 c -0.15 -0.024 -0.305 -0.036 -0.462 -0.036 h 0 c -1.618 0 -2.929 1.311 -2.929 2.929 l 0 5.459 l 0 2.824 c 0 3.327 2.634 6.278 6.696 8.113 l 0 31.936 l 16.555 0 l 0 -31.697 l 0 0 c 2.486 -1.835 4.098 -4.786 4.098 -8.113 L 58.348 36.986 z" style="stroke: none; stroke-width: 1; stroke-dasharray: none; stroke-linecap: butt; stroke-linejoin: miter; stroke-miterlimit: 10; fill: rgb(243,179,113); fill-rule: nonzero; opacity: 1;" transform=" matrix(1 0 0 1 0 0) " stroke-linecap="round" />
	<rect x="37.7" y="62.27" rx="0" ry="0" width="16.55" height="27.44" style="stroke: none; stroke-width: 1; stroke-dasharray: none; stroke-linecap: butt; stroke-linejoin: miter; stroke-miterlimit: 10; fill: rgb(0,0,0); fill-rule: nonzero; opacity: 1;" transform=" matrix(1 0 0 1 0 0) "/>
	<rect x="37.7" y="62.27" rx="0" ry="0" width="16.55" height="4.72" style="stroke: none; stroke-width: 1; stroke-dasharray: none; stroke-linecap: butt; stroke-linejoin: miter; stroke-miterlimit: 10; fill: rgb(251,120,19); fill-rule: nonzero; opacity: 1;" transform=" matrix(1 0 0 1 0 0) "/>
	<path d="M 58.848 36.986 c 0 -1.938 -1.577 -3.515 -3.515 -3.515 c -0.987 0 -1.877 0.411 -2.516 1.068 v -4.786 c 0 -1.938 -1.577 -3.515 -3.515 -3.515 c -1.001 0 -1.901 0.426 -2.541 1.1 c -0.138 -1.813 -1.641 -3.25 -3.488 -3.25 c -1.938 0 -3.515 1.577 -3.515 3.515 v 0.431 c -0.621 -0.624 -1.48 -1.012 -2.429 -1.012 c -1.891 0 -3.429 1.538 -3.429 3.429 v 7.503 c -1.873 0.021 -3.391 1.548 -3.391 3.425 v 8.283 c 0 3.311 2.496 6.445 6.696 8.433 v 3.676 v 5.716 v 22.225 c 0 0.276 0.224 0.5 0.5 0.5 h 16.555 c 0.276 0 0.5 -0.224 0.5 -0.5 V 67.486 v -5.716 v -3.508 c 2.57 -1.996 4.098 -5.103 4.098 -8.361 L 58.848 36.986 z M 38.206 62.771 h 15.555 v 3.716 H 38.206 V 62.771 z M 53.761 89.211 H 38.206 V 67.486 h 15.555 V 89.211 z M 53.964 57.611 c -0.128 0.095 -0.203 0.243 -0.203 0.402 v 3.757 H 38.206 v -3.995 c 0 -0.196 -0.115 -0.375 -0.294 -0.456 c -4.009 -1.812 -6.402 -4.674 -6.402 -7.657 v -8.283 c 0 -1.326 1.07 -2.404 2.391 -2.425 v 4.593 h 1 V 30.451 c 0 -1.339 1.089 -2.429 2.429 -2.429 s 2.429 1.089 2.429 2.429 v 11.075 v 2.021 h 1 v -2.021 V 30.451 v -2.848 c 0 -1.387 1.128 -2.515 2.515 -2.515 s 2.515 1.128 2.515 2.515 v 2.149 v 13.267 v 1.502 h 1 v -1.502 V 29.752 c 0 -1.387 1.128 -2.515 2.515 -2.515 s 2.515 1.128 2.515 2.515 v 7.233 v 7.535 v 0.8 h 1 v -0.8 v -7.535 c 0 -1.387 1.129 -2.515 2.516 -2.515 s 2.515 1.128 2.515 2.516 l 0.011 12.915 C 57.858 52.93 56.402 55.812 53.964 57.611 z" style="stroke: none; stroke-width: 1; stroke-dasharray: none; stroke-linecap: butt; stroke-linejoin: miter; stroke-miterlimit: 10; fill: rgb(0,0,0); fill-rule: nonzero; opacity: 1;" transform=" matrix(1 0 0 1 0 0) " stroke-linecap="round" />
	<path d="M 49.637 70.413 h -2.112 c -0.276 0 -0.5 -0.224 -0.5 -0.5 s 0.224 -0.5 0.5 -0.5 h 2.112 c 0.276 0 0.5 0.224 0.5 0.5 S 49.913 70.413 49.637 70.413 z" style="stroke: none; stroke-width: 1; stroke-dasharray: none; stroke-linecap: butt; stroke-linejoin: miter; stroke-miterlimit: 10; fill: rgb(0,0,0); fill-rule: nonzero; opacity: 1;" transform=" matrix(1 0 0 1 0 0) " stroke-linecap="round" />
	<path d="M 40.632 76.39 c -0.276 0 -0.5 -0.224 -0.5 -0.5 v -5.977 c 0 -0.276 0.224 -0.5 0.5 -0.5 h 4.502 c 0.276 0 0.5 0.224 0.5 0.5 s -0.224 0.5 -0.5 0.5 h -4.002 v 5.477 C 41.132 76.166 40.909 76.39 40.632 76.39 z" style="stroke: none; stroke-width: 1; stroke-dasharray: none; stroke-linecap: butt; stroke-linejoin: miter; stroke-miterlimit: 10; fill: rgb(0,0,0); fill-rule: nonzero; opacity: 1;" transform=" matrix(1 0 0 1 0 0) " stroke-linecap="round" />
</g>
</g>
</svg>